<?xml version="1.0" standalone="no"?>
<!DOCTYPE svg PUBLIC "-//W3C//DTD SVG 20010904//EN"
 "http://www.w3.org/TR/2001/REC-SVG-20010904/DTD/svg10.dtd">
<svg version="1.0" xmlns="http://www.w3.org/2000/svg"
 width="655.000000pt" height="655.000000pt" viewBox="0 0 655.000000 655.000000"
 preserveAspectRatio="xMidYMid meet">

<g transform="translate(0.000000,655.000000) scale(0.100000,-0.100000)"
fill="#000000" stroke="none">
<path d="M2385 6328 c-237 -24 -470 -90 -681 -194 -266 -130 -490 -303 -669
-518 -319 -384 -473 -846 -451 -1357 15 -359 105 -656 294 -969 180 -298 489
-583 812 -749 289 -148 569 -218 916 -228 358 -11 645 43 924 173 l94 45 41
-48 c22 -26 102 -119 178 -205 l138 -158 -24 -32 c-45 -62 -57 -126 -36 -202
8 -29 39 -69 118 -150 59 -61 210 -221 336 -356 255 -273 315 -336 729 -763
226 -233 303 -306 355 -337 146 -86 301 -92 446 -17 80 42 174 136 211 212 26
56 29 69 29 175 0 114 -1 117 -37 190 -44 88 -89 139 -513 582 -298 310 -448
470 -803 850 -126 135 -197 203 -226 218 -51 24 -134 27 -176 5 -29 -15 -30
-15 -72 32 -24 26 -91 99 -150 163 -60 63 -108 120 -108 126 0 7 6 14 14 17
19 7 198 217 258 302 407 576 470 1376 160 2036 -242 516 -720 925 -1267 1084
-257 74 -564 101 -840 73z m463 -139 c444 -48 851 -250 1167 -580 109 -114
166 -186 241 -310 331 -543 374 -1222 114 -1799 -93 -208 -208 -370 -398 -562
l-116 -118 25 -27 c14 -16 104 -113 200 -217 l174 -189 -89 -83 -89 -82 -42
46 c-47 53 -185 215 -293 345 -40 48 -75 87 -78 87 -2 0 -48 -22 -102 -49
-596 -299 -1355 -274 -1901 64 -405 251 -698 614 -840 1040 -58 174 -82 318
-88 526 -11 348 49 628 193 909 280 543 842 930 1454 999 110 12 356 13 468 0z
m1678 -3841 c20 -17 131 -133 247 -257 232 -249 618 -657 912 -965 323 -338
329 -347 329 -476 0 -58 -5 -85 -22 -118 -35 -66 -88 -119 -150 -149 -50 -24
-69 -28 -147 -28 -145 0 -167 15 -456 317 -302 316 -1012 1065 -1123 1185 -65
71 -74 105 -38 152 36 48 380 371 396 371 8 0 32 -14 52 -32z"/>
<path d="M2445 6004 c-190 -20 -410 -85 -590 -173 -328 -161 -576 -395 -742
-699 -179 -328 -234 -742 -153 -1144 133 -652 674 -1181 1351 -1317 108 -22
323 -41 394 -36 22 2 79 6 127 9 358 24 719 184 982 436 223 214 362 433 450
708 59 184 79 316 79 537 0 167 -3 205 -26 316 -146 697 -682 1219 -1382 1344
-87 16 -403 28 -490 19z m336 -134 c294 -29 536 -117 761 -277 134 -96 320
-285 401 -408 114 -173 184 -340 228 -545 20 -91 23 -133 23 -320 0 -193 -3
-228 -26 -335 -64 -301 -197 -543 -423 -771 -273 -274 -612 -421 -1016 -440
-360 -17 -705 82 -989 283 -93 67 -300 262 -354 335 l-28 37 33 41 c19 23 64
66 101 96 200 165 455 242 757 231 168 -6 268 -25 364 -69 103 -48 135 -97
106 -162 -25 -53 49 -79 95 -33 57 57 38 157 -43 229 -202 180 -703 210 -1066
64 -136 -55 -274 -151 -355 -248 l-49 -58 -20 29 c-12 16 -21 32 -21 36 0 13
62 88 129 158 251 261 661 361 1111 271 164 -33 294 -91 379 -170 71 -66 102
-130 102 -214 1 -137 -97 -220 -243 -207 -84 7 -137 40 -168 105 -27 56 -49
65 -82 35 -23 -21 -23 -64 2 -112 24 -48 69 -87 140 -120 76 -35 210 -37 285
-3 59 27 117 80 153 142 23 38 27 59 30 140 5 125 -17 186 -96 272 -47 50 -53
60 -32 54 14 -4 104 -10 200 -13 152 -4 188 -2 273 16 338 71 537 270 537 536
0 213 -139 381 -328 393 -94 6 -148 -14 -201 -74 -108 -123 -47 -322 97 -312
38 3 42 1 42 -20 0 -35 -81 -115 -154 -151 -145 -71 -260 -87 -746 -101 -583
-17 -717 -32 -924 -101 -219 -73 -418 -217 -530 -383 l-26 -39 -29 64 c-140
310 -153 778 -31 1124 229 646 917 1065 1631 995z m952 -1148 c121 -81 158
-259 86 -410 -58 -121 -215 -224 -400 -263 -123 -25 -326 -35 -459 -21 -96 11
-374 71 -366 80 2 2 102 3 223 3 354 -2 510 21 669 99 146 71 234 182 234 295
0 95 -51 154 -139 163 -39 3 -51 8 -51 22 0 17 34 53 60 63 30 12 102 -3 143
-31z"/>
<path d="M2849 5270 c-58 -10 -99 -31 -150 -77 -103 -93 -134 -284 -50 -306
29 -7 61 27 61 66 0 55 46 134 94 162 88 52 223 21 285 -65 40 -55 54 -116 49
-208 -10 -172 -109 -284 -306 -344 -61 -19 -104 -22 -467 -28 -423 -8 -448
-11 -600 -63 -93 -32 -116 -43 -205 -94 -117 -66 -250 -188 -250 -229 0 -20
29 -44 54 -44 13 0 38 17 61 41 78 81 245 175 377 213 154 45 183 48 593 56
368 7 406 9 473 29 196 58 321 169 374 334 28 85 28 241 1 313 -66 171 -229
272 -394 244z"/>
<path d="M2880 4960 c-11 -6 -15 -27 -15 -68 0 -72 -31 -118 -102 -153 -47
-24 -53 -24 -473 -30 -387 -6 -432 -8 -501 -27 -189 -51 -343 -142 -440 -259
-40 -49 -48 -80 -27 -101 23 -23 48 -12 126 53 120 101 264 168 422 195 38 7
222 13 446 15 398 3 428 6 515 51 127 64 198 238 128 313 -21 22 -54 27 -79
11z"/>
</g>
</svg>
